<svg xmlns="http://www.w3.org/2000/svg" viewBox="0 0 80 80">
  <path fill="none" stroke="#000" stroke-width=".5" d="M13.2 47h53.6M13.2 33h53.6M6.2 40L40 6.4 73.8 40 40 73.6zM.4 40L40 .6 79.6 40 40 79.4z"/>
  <path d="M41.6 14.2a2.7 3.3 30 0 0-4 1.4 2.7 3.3 30 0 0 .3 3.8c0-.3 0-.8.3-1.2.4-.5 1-1 1.8-1.5l1-.7.5-.5c.2-.5.2-1 .1-1.3zm.5.3c0 .3 0 .8-.3 1.1 0 .3-.3.5-.6.8l-1 .7c-.7.4-1.4 1-1.6 1.3-.3.5-.3 1-.3 1.4a2.7 3.3 30 0 0 4-1.5 2.7 3.3 30 0 0-.2-3.8z"/>
  <path d="M22.1 45.2h-.7v-4.7h-4.7v4.7h-.8v-10h.8v4.5h4.7v-4.4h.7zM25.6 45.2h-.8v-10h.8zM29 41.2v4h-.7v-10h3q1.2 0 2 .9.7.8.7 2.2 0 1.4-.7 2.1-.7.8-2.1.8zm0-.7h2.2q1 0 1.5-.6.6-.6.6-1.6t-.6-1.7q-.5-.6-1.5-.6h-2.1zM40.7 42.8q0-.8-.5-1.3-.4-.5-1.7-1-1.3-.4-2-1t-.7-1.8q0-1.1.8-1.8.7-.8 2-.8t2 .9q.9.8.9 2.1h-.8q0-1-.6-1.6-.5-.6-1.5-.6t-1.5.5q-.5.5-.5 1.3T37 39q.5.5 1.6.9t1.7.8q.6.4.8 1 .3.4.3 1.2 0 1.1-.8 1.9-.8.7-2 .7-1 0-1.7-.4-.7-.3-1-1-.5-.7-.5-1.6h.8q0 1 .6 1.6.7.7 1.7.7t1.6-.6q.5-.5.5-1.3zM49.2 36h-2.8v9.2h-.8V36h-2.9v-.7h6.5zM55.6 40.5h-3.8v4h4.4v.7H51v-10h5.2v.8h-4.4v3.7h3.8zM61.2 41.1H59v4.1h-.8v-10H61q1.3 0 2 .9.8.7.8 2.1 0 1-.5 1.7-.4.7-1.2 1l2 4.2v.1h-.8zm-2.3-.7h2q1 0 1.5-.6t.5-1.6q0-1-.5-1.6-.6-.6-1.6-.6H59z" font-family="Roboto Condensed" font-size="14" font-weight="300" letter-spacing=".2" style="line-height:125%;-inkscape-font-specification:'Roboto Condensed, Light';font-variant-ligatures:normal;font-variant-caps:normal;font-variant-numeric:normal;font-feature-settings:normal;text-align:center" text-anchor="middle" word-spacing="0"/>
  <path d="M29.3 54q0 1.2-.6 1.8-.6.6-1.6.6t-1.6-.8q-.6-.8-.6-2.1v-1.6q0-1.3.6-2Q26 49 27 49t1.6.6q.5.6.6 1.8h-.6q0-1-.4-1.4-.4-.4-1.2-.4-.8 0-1.2.6-.5.6-.5 1.7v1.5q0 1.2.5 1.8.4.6 1.2.6.8 0 1.2-.4.4-.4.4-1.4zM35.1 53.5q0 1.3-.6 2.1t-1.7.8q-1 0-1.7-.8-.6-.8-.6-2.1v-1.6q0-1.3.6-2 .6-.9 1.7-.9t1.7.8q.6.8.6 2.2zm-.5-1.6q0-1.1-.5-1.7-.4-.6-1.3-.6-.8 0-1.3.6-.4.5-.4 1.7v1.6q0 1.1.4 1.7.5.6 1.3.6.9 0 1.3-.6.5-.6.5-1.7zM39.9 53h-2.7v3.3h-.6V49h3.7v.6h-3.1v2.7h2.7zM44.8 53h-2.7v3.3h-.6V49h3.7v.6h-3.1v2.7h2.7zM49.7 52.9H47v2.8H50v.6h-3.7V49h3.7v.6H47v2.6h2.7zM54.7 52.9H52v2.8H55v.6h-3.7V49h3.7v.6H52v2.6h2.7z" font-family="Roboto Condensed" font-size="10" font-weight="300" letter-spacing="0" style="line-height:125%;-inkscape-font-specification:'Roboto Condensed, Light';font-variant-ligatures:normal;font-variant-caps:normal;font-variant-numeric:normal;font-feature-settings:normal;text-align:center" text-anchor="middle" word-spacing="0"/>
  <path d="M28.1 29.8q-.3.5-.9.7-.5.3-1.1.3-1.1 0-1.8-.8-.6-.7-.6-2v-1.7q0-1.4.6-2.1.6-.7 1.7-.7 1 0 1.5.5.6.5.6 1.6h-.5q-.1-.9-.5-1.2-.4-.4-1.1-.4-.9 0-1.3.6-.5.5-.5 1.7v1.6q0 1.1.5 1.7.5.6 1.4.6.9 0 1.5-.5v-1.9H26v-.5h2.1zM32.8 27.3H30V30h3.2v.6h-3.7v-7.1h3.7v.5H30v2.6h2.8zM38.6 30.7h-.5l-3.4-6v6h-.5v-7.1h.5l3.4 6v-6h.5zM43.3 27.3h-2.7V30h3.2v.6H40v-7.1h3.7v.5h-3.1v2.6h2.7zM47 27.7h-1.7v3h-.6v-7.1h2q1 0 1.5.5.5.6.5 1.5 0 .7-.3 1.3-.4.5-1 .7l1.6 3h-.6zm-1.7-.5h1.5q.6 0 1-.4.3-.5.3-1.2t-.3-1.1q-.4-.4-1.1-.4h-1.4zM50.6 30.7H50v-7.1h.6zM56.4 28.4q-.1 1.2-.7 1.8-.6.6-1.6.6t-1.6-.8q-.6-.8-.6-2.1v-1.6q0-1.3.6-2 .6-.8 1.7-.8 1 0 1.5.5.6.6.7 1.8h-.6q0-1-.5-1.4-.3-.4-1.1-.4t-1.3.6q-.4.6-.4 1.7v1.5q0 1.2.4 1.8.5.6 1.2.6.9 0 1.2-.4.4-.4.5-1.4z" font-family="Roboto Condensed" font-size="10" font-weight="300" letter-spacing="-.3" style="line-height:125%;-inkscape-font-specification:'Roboto Condensed, Light';font-variant-ligatures:normal;font-variant-caps:normal;font-variant-numeric:normal;font-feature-settings:normal;text-align:center" text-anchor="middle" word-spacing="0"/>
  <path d="M35 62.4h-1v1h1-1.2v-2.3h1.3v.2h-1v.9h.9zM36.6 62.9v-.3l-.5-.2-.5-.3q-.2-.1-.2-.4 0-.3.2-.4.2-.2.5-.2t.5.2q.2.2.2.5h-.2l-.1-.4-.4-.1h-.3l-.2.4q0 .2.2.3l.3.2q.3 0 .4.2.2 0 .2.2l.1.3q0 .3-.2.4-.2.2-.5.2h-.4l-.2-.3-.1-.4h.2l.1.4.4.1h.4l.1-.4zM38.6 61.3h-.7v2.2h-.2v-2.2h-.6V61h1.5zM38.6 63.4v-.1h.2v.2h-.2v-.1zM41.4 63.5H40v-.2l.7-.9.2-.4v-.3-.3l-.3-.1-.3.1-.2.4h-.1l.1-.5q.2-.2.5-.2l.4.2q.2.1.2.4 0 .3-.3.7l-.1.1-.6.8h1zM43 62.5q0 .5-.2.8-.2.2-.5.2t-.4-.2q-.2-.3-.2-.8v-.4q0-.5.2-.8.1-.2.4-.2.3 0 .5.2l.1.8zm-.3-.4v-.6l-.4-.2-.3.1-.1.6v1.1l.4.2q.2 0 .3-.2l.1-.6zM44.1 63.5H44v-2.1l-.5.2v-.2l.7-.3zM46.2 62.5q0 .5-.2.8-.1.2-.4.2-.3 0-.5-.2-.2-.3-.2-.8v-.4q0-.5.2-.8.2-.2.5-.2t.4.2q.2.3.2.8zM46 62l-.1-.6q-.1-.2-.3-.2l-.4.1V63.1q.1.2.4.2.2 0 .3-.2v-.6z" font-family="Roboto Condensed" font-size="3.3" font-weight="300" letter-spacing="0" style="line-height:125%;-inkscape-font-specification:'Roboto Condensed, Light';font-variant-ligatures:normal;font-variant-caps:normal;font-variant-numeric:normal;font-feature-settings:normal;text-align:center" text-anchor="middle" word-spacing="0"/>
</svg>
